<svg xmlns="http://www.w3.org/2000/svg"  viewBox="0 0 100 100" width="50px" height="50px" baseProfile="basic"><path fill="#ee3e54" d="M13,27c-1.105,0-2,0.895-2,2s0.895,2,2,2s2-0.895,2-2S14.105,27,13,27z"/><path fill="#f1bc19" d="M77,12c-0.552,0-1,0.448-1,1s0.448,1,1,1s1-0.448,1-1S77.552,12,77,12z"/><path fill="#fce0a2" d="M50,13c-20.435,0-37,16.565-37,37s16.565,37,37,37s37-16.565,37-37S70.435,13,50,13z"/><path fill="#f1bc19" d="M83,11c-2.209,0-4,1.791-4,4s1.791,4,4,4s4-1.791,4-4S85.209,11,83,11z"/><path fill="#ee3e54" d="M87,22c-1.105,0-2,0.895-2,2s0.895,2,2,2s2-0.895,2-2S88.105,22,87,22z"/><path fill="#fbcd59" d="M81,74c-1.105,0-2,0.895-2,2s0.895,2,2,2s2-0.895,2-2S82.105,74,81,74z M15,59c-2.209,0-4,1.791-4,4 c0,2.209,1.791,4,4,4s4-1.791,4-4C19,60.791,17.209,59,15,59z"/><path fill="#ee3e54" d="M25,85c-1.105,0-2,0.895-2,2s0.895,2,2,2s2-0.895,2-2S26.105,85,25,85z"/><path fill="#f1bc19" d="M21,66c-0.552,0-1,0.448-1,1s0.448,1,1,1s1-0.448,1-1S21.552,66,21,66z"/><path fill="#fff" d="M80,33c-0.552,0-1,0.448-1,1s0.448,1,1,1s1-0.448,1-1S80.552,33,80,33z"/><path fill="#ec7898" d="M37.766,40.252l-3.794,4.237c-1.42-1.363-3.351-2.192-5.475-2.192c-2.703,0-6.735,3.407-6.735,3.407 l-4.566-3.078c2.453-3.623,6.599-6.008,11.301-6.008C32.075,36.617,35.335,38.003,37.766,40.252z"/><path fill="#84caf7" d="M42.127,49.111v1.136c0,3.896-1.636,7.417-4.259,9.893l-4.271-3.794 c0.875-0.738,1.59-1.647,2.09-2.692h-6.054v-4.543H42.127z"/><path fill="#73c9ae" d="M34.219,56.094c-1.381,1.154-3.781,2.104-5.721,2.104c-3.368,0-6.037-1.647-7.195-4.604 l-4.375,3.125c2.258,4.405,6.28,7.158,11.57,7.158c3.631,0,7.132-1.406,9.575-3.72L34.219,56.094z"/><path fill="#f8e2ad" d="M21.905,45.801l-4.709-3.176c-1.471,2.176-2.328,4.799-2.328,7.621c0,2.238,1,4.505,1.955,6.368 l4.479-2.812c-0.353-0.9-0.755-2.532-0.755-3.555C20.547,48.6,21.048,47.07,21.905,45.801z"/><path fill="#9797ac" d="M56.708,41.194c1.024,0.453,1.81,1.104,2.357,1.95c0.547,0.848,0.819,1.855,0.819,3.018 c0,1.151-0.273,2.152-0.819,3.008c-0.546,0.855-1.332,1.509-2.357,1.964c-1.023,0.453-2.226,0.68-3.608,0.68h-3.596v4.584h-2.961 V40.513H53.1C54.481,40.513,55.684,40.74,56.708,41.194z M55.9,48.5c0.668-0.545,1.003-1.323,1.003-2.337 c0-1.013-0.335-1.792-1.003-2.336c-0.668-0.544-1.647-0.817-2.937-0.817h-3.46v6.308h3.46C54.254,49.316,55.232,49.045,55.9,48.5z M71.211,45.425c0.948,0.854,1.423,2.144,1.423,3.869v7.102h-2.687l-0.012-1.085c-0.182,0.182-0.834,0.544-1.479,0.825 c-0.646,0.279-1.423,0.419-2.333,0.419c-0.912,0-1.707-0.156-2.391-0.466c-0.683-0.309-1.211-0.741-1.582-1.293 c-0.373-0.552-0.558-1.176-0.558-1.872c0-1.09,0.405-1.964,1.219-2.621c0.812-0.658,2.09-0.987,3.837-0.987h3.142v-0.181 c0-0.847-0.254-1.498-0.762-1.952c-0.509-0.454-1.264-0.68-2.266-0.68c-0.683,0-1.354,0.107-2.015,0.317 c-0.66,0.212-1.219,0.508-1.674,0.885l-1.115-2.064c0.637-0.485,1.404-0.855,2.299-1.112c0.896-0.257,1.845-0.385,2.846-0.385 C68.892,44.144,70.262,44.571,71.211,45.425z M69.788,52.608v-1.407h-2.937c-1.64,0-2.459,0.537-2.459,1.611 c0,0.516,0.301,1.679,2.322,1.679C68.659,54.489,69.56,53.212,69.788,52.608z M81.74,57.374c-0.532,1.315-1.731,3.453-4.691,3.583 c-0.606,0.027-1.206-0.098-1.798-0.294c-0.593-0.196-1.078-0.469-1.457-0.817l1.138-2.088c0.274,0.257,0.596,0.461,0.968,0.612 c0.373,0.151,0.748,0.227,1.127,0.227c0.501,0,0.914-0.129,1.24-0.386c0.327-0.257,0.626-0.688,0.9-1.293l0.204-0.476 L74.067,44.28h2.959l3.825,8.964l3.848-8.964h2.733L81.74,57.374z"/><path fill="#472b29" d="M76.886,61.46c-0.55,0-1.138-0.106-1.792-0.323c-0.657-0.218-1.208-0.528-1.638-0.923 c-0.169-0.155-0.211-0.406-0.101-0.608l1.138-2.087c0.074-0.136,0.207-0.23,0.359-0.254c0.151-0.025,0.309,0.023,0.421,0.128 c0.229,0.215,0.503,0.388,0.814,0.514c0.7,0.285,1.439,0.25,1.87-0.088c0.259-0.204,0.513-0.576,0.753-1.106l0.115-0.268 L73.608,44.48c-0.067-0.154-0.052-0.333,0.04-0.474c0.093-0.141,0.25-0.226,0.418-0.226h2.958c0.2,0,0.381,0.12,0.46,0.304 l3.367,7.889l3.387-7.89c0.079-0.184,0.26-0.303,0.459-0.303h2.733c0.168,0,0.326,0.085,0.418,0.226 c0.093,0.141,0.108,0.319,0.041,0.473l-5.689,13.087c-1.002,2.476-2.729,3.784-5.13,3.89C77.01,61.459,76.948,61.46,76.886,61.46z M74.434,59.717c0.275,0.189,0.602,0.347,0.976,0.471c0.609,0.202,1.134,0.293,1.618,0.269c2.005-0.088,3.395-1.158,4.25-3.271 c0.001-0.004,0.003-0.008,0.005-0.012l5.387-12.394h-1.641l-3.718,8.661c-0.079,0.184-0.26,0.303-0.459,0.303h0 c-0.2,0-0.381-0.12-0.459-0.304l-3.696-8.66h-1.865l4.999,11.463c0.055,0.126,0.055,0.27,0.001,0.397l-0.205,0.476 c-0.316,0.697-0.658,1.181-1.05,1.488c-0.714,0.562-1.833,0.647-2.864,0.229c-0.221-0.09-0.428-0.197-0.622-0.321L74.434,59.717z M66.123,57.055c-0.977,0-1.85-0.172-2.598-0.51c-0.765-0.346-1.367-0.84-1.791-1.469c-0.426-0.632-0.643-1.355-0.643-2.151 c0-1.244,0.473-2.257,1.404-3.01c0.912-0.739,2.27-1.098,4.151-1.098h2.627c-0.052-0.544-0.244-0.958-0.581-1.261 c-0.411-0.367-1.061-0.553-1.933-0.553c-0.624,0-1.25,0.099-1.863,0.293c-0.594,0.191-1.102,0.458-1.507,0.793 c-0.115,0.096-0.27,0.135-0.414,0.105c-0.147-0.028-0.273-0.122-0.345-0.253l-1.115-2.064c-0.117-0.217-0.059-0.486,0.137-0.636 c0.683-0.52,1.511-0.921,2.464-1.194c0.936-0.269,1.939-0.404,2.984-0.404c1.909,0,3.404,0.474,4.444,1.409c0,0,0,0,0,0 c1.054,0.95,1.588,2.376,1.588,4.24v7.102c0,0.276-0.224,0.5-0.5,0.5h-2.687c-0.274,0-0.497-0.22-0.5-0.494l-0.002-0.188 c-0.26,0.138-0.54,0.271-0.79,0.38C67.948,56.9,67.096,57.055,66.123,57.055z M66.648,49.816c-1.62,0-2.805,0.294-3.522,0.875 c-0.696,0.562-1.034,1.292-1.034,2.233c0,0.601,0.154,1.122,0.472,1.592c0.318,0.473,0.78,0.849,1.374,1.117 c0.617,0.28,1.352,0.421,2.185,0.421c0.836,0,1.554-0.127,2.135-0.378c0.71-0.309,1.231-0.628,1.324-0.719 c0.143-0.142,0.356-0.186,0.542-0.108c0.186,0.076,0.309,0.255,0.311,0.456l0.007,0.59h1.692v-6.602 c0-1.569-0.423-2.745-1.257-3.497c-0.851-0.765-2.121-1.152-3.775-1.152c-0.951,0-1.862,0.123-2.708,0.365 c-0.673,0.193-1.272,0.457-1.785,0.786l0.633,1.171c0.398-0.252,0.851-0.461,1.352-0.622c0.712-0.226,1.441-0.341,2.168-0.341 c1.125,0,1.999,0.271,2.599,0.807c0.617,0.553,0.929,1.335,0.929,2.326v0.181c0,0.276-0.224,0.5-0.5,0.5H66.648z M49.504,56.898 h-2.961c-0.276,0-0.5-0.224-0.5-0.5V40.513c0-0.276,0.224-0.5,0.5-0.5H53.1c1.445,0,2.727,0.244,3.811,0.725l0,0 c1.111,0.491,1.977,1.21,2.574,2.136c0.597,0.923,0.899,2.03,0.899,3.289c0,1.242-0.302,2.344-0.898,3.277 c-0.597,0.935-1.463,1.658-2.575,2.152c-1.084,0.48-2.366,0.723-3.811,0.723h-3.096v4.084 C50.004,56.674,49.78,56.898,49.504,56.898z M47.043,55.898h1.961v-4.084c0-0.276,0.224-0.5,0.5-0.5H53.1 c1.305,0,2.451-0.214,3.406-0.637c0.929-0.413,1.648-1.01,2.138-1.776c0.492-0.77,0.741-1.691,0.741-2.739 c0-1.063-0.249-1.987-0.739-2.746c-0.49-0.76-1.21-1.354-2.139-1.765c0,0,0,0,0,0c-0.955-0.424-2.101-0.639-3.406-0.639h-6.057 V55.898z M66.711,54.99c-1.022,0-1.79-0.271-2.284-0.807c-0.483-0.524-0.535-1.134-0.535-1.372c0-0.963,0.513-2.11,2.959-2.11 h2.937c0.276,0,0.5,0.224,0.5,0.5v1.407c0,0.061-0.011,0.12-0.032,0.177c-0.309,0.819-1.403,2.205-3.542,2.205 C66.712,54.99,66.711,54.99,66.711,54.99z M66.851,51.701c-1.959,0-1.959,0.807-1.959,1.11c0,0.121,0.026,0.43,0.271,0.694 c0.292,0.317,0.828,0.484,1.548,0.484c0.001,0,0.001,0,0.002,0c1.766,0,2.429-1.169,2.575-1.483v-0.806H66.851z M69.788,52.608 h0.01H69.788z M52.963,49.817h-3.46c-0.276,0-0.5-0.224-0.5-0.5v-6.308c0-0.276,0.224-0.5,0.5-0.5h3.459 c1.402,0,2.497,0.312,3.253,0.929c0.788,0.643,1.187,1.559,1.187,2.724s-0.399,2.082-1.186,2.725l0,0 C55.461,49.503,54.367,49.816,52.963,49.817z M50.003,48.817h2.959c1.167-0.001,2.049-0.238,2.621-0.705l0,0 c0.551-0.45,0.819-1.088,0.819-1.95s-0.268-1.5-0.818-1.949c-0.574-0.467-1.456-0.704-2.622-0.704h-2.959V48.817z"/><path fill="#472b29" d="M43.059,49.137c0-0.387-0.313-0.7-0.7-0.7H29.865c-0.387,0-0.7,0.313-0.7,0.7v4.543	c0,0.387,0.313,0.7,0.7,0.7h4.841c-0.371,0.536-0.816,1.024-1.329,1.457l0.001,0.001c-1.302,1.087-2.952,1.686-4.649,1.686	c-3.006,0-5.656-1.808-6.752-4.605l-0.001,0c-0.33-0.842-0.497-1.732-0.497-2.646c0-1.453,0.428-2.854,1.238-4.053l-0.02-0.013	c0.028-0.028,0.065-0.045,0.088-0.078c1.346-1.945,3.568-3.106,5.944-3.106c1.876,0,3.648,0.709,4.99,1.997	c0.137,0.132,0.326,0.197,0.511,0.195c0.19-0.007,0.369-0.091,0.495-0.233l3.793-4.237c0.255-0.285,0.234-0.721-0.046-0.98	c-2.664-2.464-6.124-3.821-9.744-3.821c-4.761,0-9.203,2.361-11.881,6.316l0.58,0.393l-0.58-0.392	c-1.602,2.37-2.448,5.141-2.448,8.013c0,2.3,0.529,4.497,1.572,6.531l0.001,0c2.466,4.81,7.354,7.799,12.757,7.799	c3.683,0,7.183-1.395,9.855-3.926l-0.003-0.003c2.845-2.686,4.477-6.477,4.477-10.4V49.137z M28.729,37.344	c3.037,0,5.949,1.058,8.275,2.994l-2.858,3.193c-1.524-1.235-3.421-1.908-5.417-1.908c-2.685,0-5.195,1.255-6.82,3.359l-3.713-2.183	C20.63,39.384,24.537,37.344,28.729,37.344z M15.8,50.273c0-2.359,0.638-4.638,1.841-6.64l3.702,2.176	c-0.816,1.347-1.265,2.876-1.265,4.464c0,1.09,0.2,2.152,0.595,3.158l0,0c0.015,0.038,0.037,0.072,0.053,0.11l-3.63,2.351	C16.245,54.133,15.8,52.247,15.8,50.273z M17.561,56.782l3.602-2.333c1.507,2.746,4.362,4.475,7.565,4.475	c2.005,0,3.955-0.703,5.5-1.976l3.002,3.048c-2.358,2.064-5.352,3.206-8.502,3.206C24.091,63.202,19.877,60.758,17.561,56.782z M41.659,50.273c0,3.378-1.352,6.635-3.704,9.032l-2.992-3.037c0.651-0.676,1.183-1.441,1.586-2.285	c0.104-0.217,0.089-0.472-0.039-0.675c-0.128-0.204-0.352-0.327-0.592-0.327h-5.354v-3.143h11.094V50.273z"/></svg>